<svg xmlns="http://www.w3.org/2000/svg" xmlns:xlink="http://www.w3.org/1999/xlink" width="400" zoomAndPan="magnify" viewBox="0 0 300 251.250001" height="335" preserveAspectRatio="xMidYMid meet" version="1.0"><defs><g/><clipPath id="51771f6ad5"><path d="M 0.445312 0 L 299.550781 0 L 299.550781 250.503906 L 0.445312 250.503906 Z M 0.445312 0 " clip-rule="nonzero"/></clipPath><clipPath id="d4d13bba63"><path d="M 43.664062 107.695312 L 257.210938 107.695312 L 257.210938 143.75 L 43.664062 143.75 Z M 43.664062 107.695312 " clip-rule="nonzero"/></clipPath></defs><g clip-path="url(#51771f6ad5)"><path fill="#ffffff" d="M 0.445312 0 L 299.554688 0 L 299.554688 250.503906 L 0.445312 250.503906 Z M 0.445312 0 " fill-opacity="1" fill-rule="nonzero"/></g><g fill="#bf732f" fill-opacity="1"><g transform="translate(32.960228, 171.097095)"><g><path d="M 13.359375 -106.796875 L 44.75 -106.796875 C 59.394531 -106.796875 70.140625 -105.765625 76.984375 -103.703125 C 84.773438 -101.285156 90.796875 -98.1875 95.046875 -94.40625 C 99.304688 -90.632812 102.640625 -86.738281 105.046875 -82.71875 C 109.984375 -74.507812 112.453125 -65.203125 112.453125 -54.796875 C 112.453125 -38.390625 106.566406 -25.101562 94.796875 -14.9375 C 86.441406 -7.644531 76.601562 -3.144531 65.28125 -1.4375 C 58.988281 -0.476562 50.179688 0 38.859375 0 L 13.359375 0 Z M 51.84375 -6.265625 C 52.65625 -6.210938 53.382812 -6.1875 54.03125 -6.1875 L 55.765625 -6.1875 C 69.398438 -6.1875 81.050781 -10.4375 90.71875 -18.9375 C 100.925781 -27.894531 106.03125 -39.796875 106.03125 -54.640625 C 106.03125 -63.992188 103.789062 -72.421875 99.3125 -79.921875 C 92.820312 -90.835938 82.5625 -97.453125 68.53125 -99.765625 C 63.945312 -100.523438 58.382812 -100.953125 51.84375 -101.046875 Z M 51.84375 -6.265625 "/></g></g></g><g fill="#294e5b" fill-opacity="1"><g transform="translate(121.515218, 171.097095)"><g><path d="M 3.859375 1.125 C 2.898438 1.03125 2.164062 0.609375 1.65625 -0.140625 C 1.15625 -0.898438 0.957031 -1.734375 1.0625 -2.640625 C 1.3125 -4.203125 1.785156 -5.632812 2.484375 -6.9375 C 3.191406 -8.25 3.707031 -9.234375 4.03125 -9.890625 C 4.363281 -10.546875 4.707031 -11.273438 5.0625 -12.078125 L 7.921875 -18.71875 L 38.953125 -111.625 L 72.3125 -47.171875 L 104.6875 -111.625 L 143.390625 0 L 102.875 0 L 84.15625 -57.65625 L 55.171875 2.71875 L 24.6875 -51.625 L 14.125 -18.640625 C 12.457031 -14.960938 11.269531 -11.84375 10.5625 -9.28125 C 9.863281 -6.71875 9.285156 -4.734375 8.828125 -3.328125 C 7.828125 -0.148438 6.171875 1.332031 3.859375 1.125 Z M 3.859375 1.125 "/></g></g></g><g clip-path="url(#d4d13bba63)"><path fill="#f2f2f2" d="M 43.664062 107.695312 L 257.167969 107.695312 L 257.167969 143.75 L 43.664062 143.75 Z M 43.664062 107.695312 " fill-opacity="1" fill-rule="nonzero"/></g><g fill="#000000" fill-opacity="1"><g transform="translate(59.269037, 204.71765)"><g><path d="M 11.1875 0 L 9.984375 -2.6875 L 4.078125 -2.6875 L 2.875 0 L 1.078125 0 L 6.125 -11.171875 L 8.0625 -11.171875 L 13.0625 0 Z M 6.171875 -7.28125 L 4.828125 -4.34375 L 9.234375 -4.34375 L 7.859375 -7.34375 C 7.722656 -7.675781 7.585938 -8.007812 7.453125 -8.34375 C 7.316406 -8.675781 7.175781 -9.023438 7.03125 -9.390625 C 6.882812 -9.015625 6.738281 -8.648438 6.59375 -8.296875 C 6.457031 -7.953125 6.316406 -7.613281 6.171875 -7.28125 Z M 6.171875 -7.28125 "/></g></g></g><g fill="#000000" fill-opacity="1"><g transform="translate(82.189195, 204.71765)"><g><path d="M 11.90625 -7.6875 C 11.90625 -6.9375 11.671875 -6.257812 11.203125 -5.65625 C 10.742188 -5.050781 10.15625 -4.625 9.4375 -4.375 L 12.46875 0.015625 L 10.34375 0 L 7.5 -4.140625 L 4.140625 -4.140625 L 4.140625 0 L 2.421875 0 L 2.421875 -11.171875 L 8.3125 -11.171875 C 8.9375 -11.171875 9.519531 -11.019531 10.0625 -10.71875 C 10.601562 -10.425781 11.046875 -10.015625 11.390625 -9.484375 C 11.734375 -8.960938 11.90625 -8.363281 11.90625 -7.6875 Z M 7.890625 -9.515625 L 4.140625 -9.515625 L 4.140625 -5.8125 L 8.0625 -5.8125 C 8.4375 -5.8125 8.78125 -5.894531 9.09375 -6.0625 C 9.40625 -6.238281 9.644531 -6.46875 9.8125 -6.75 C 9.988281 -7.039062 10.078125 -7.351562 10.078125 -7.6875 C 10.078125 -8.039062 9.976562 -8.351562 9.78125 -8.625 C 9.582031 -8.90625 9.316406 -9.125 8.984375 -9.28125 C 8.648438 -9.4375 8.285156 -9.515625 7.890625 -9.515625 Z M 7.890625 -9.515625 "/></g></g></g><g fill="#000000" fill-opacity="1"><g transform="translate(105.268842, 204.71765)"><g><path d="M 13.015625 0.859375 L 11.640625 1.75 L 10.15625 -0.1875 C 9.4375 0.0390625 8.671875 0.15625 7.859375 0.15625 C 6.953125 0.15625 6.113281 0.0078125 5.34375 -0.28125 C 4.570312 -0.570312 3.90625 -0.976562 3.34375 -1.5 C 2.78125 -2.019531 2.34375 -2.628906 2.03125 -3.328125 C 1.726562 -4.023438 1.578125 -4.773438 1.578125 -5.578125 C 1.578125 -6.390625 1.726562 -7.144531 2.03125 -7.84375 C 2.34375 -8.539062 2.78125 -9.148438 3.34375 -9.671875 C 3.90625 -10.191406 4.570312 -10.597656 5.34375 -10.890625 C 6.113281 -11.179688 6.953125 -11.328125 7.859375 -11.328125 C 8.785156 -11.328125 9.628906 -11.179688 10.390625 -10.890625 C 11.160156 -10.597656 11.828125 -10.191406 12.390625 -9.671875 C 12.953125 -9.148438 13.390625 -8.539062 13.703125 -7.84375 C 14.015625 -7.144531 14.171875 -6.390625 14.171875 -5.578125 C 14.171875 -4.597656 13.945312 -3.703125 13.5 -2.890625 C 13.050781 -2.085938 12.4375 -1.429688 11.65625 -0.921875 Z M 12.40625 -5.578125 C 12.40625 -6.359375 12.210938 -7.050781 11.828125 -7.65625 C 11.441406 -8.269531 10.90625 -8.753906 10.21875 -9.109375 C 9.53125 -9.472656 8.742188 -9.65625 7.859375 -9.65625 C 6.972656 -9.65625 6.1875 -9.472656 5.5 -9.109375 C 4.820312 -8.753906 4.289062 -8.269531 3.90625 -7.65625 C 3.519531 -7.050781 3.328125 -6.359375 3.328125 -5.578125 C 3.328125 -4.804688 3.519531 -4.113281 3.90625 -3.5 C 4.289062 -2.882812 4.820312 -2.398438 5.5 -2.046875 C 6.1875 -1.691406 6.972656 -1.515625 7.859375 -1.515625 C 8.273438 -1.515625 8.675781 -1.554688 9.0625 -1.640625 L 7.421875 -3.78125 C 7.421875 -3.78125 7.488281 -3.820312 7.625 -3.90625 C 7.769531 -3.988281 7.9375 -4.085938 8.125 -4.203125 C 8.3125 -4.316406 8.476562 -4.414062 8.625 -4.5 C 8.769531 -4.582031 8.84375 -4.625 8.84375 -4.625 L 10.625 -2.28125 C 11.175781 -2.644531 11.609375 -3.113281 11.921875 -3.6875 C 12.242188 -4.257812 12.40625 -4.890625 12.40625 -5.578125 Z M 12.40625 -5.578125 "/></g></g></g><g fill="#000000" fill-opacity="1"><g transform="translate(129.78386, 204.71765)"><g><path d="M 12.671875 -11.1875 L 12.671875 -4.96875 C 12.671875 -4 12.453125 -3.128906 12.015625 -2.359375 C 11.578125 -1.597656 10.96875 -1 10.1875 -0.5625 C 9.40625 -0.125 8.492188 0.09375 7.453125 0.09375 C 6.421875 0.09375 5.515625 -0.125 4.734375 -0.5625 C 3.953125 -1 3.335938 -1.597656 2.890625 -2.359375 C 2.453125 -3.128906 2.234375 -4 2.234375 -4.96875 L 2.234375 -11.1875 L 3.953125 -11.1875 L 3.953125 -5.0625 C 3.953125 -4.375 4.109375 -3.769531 4.421875 -3.25 C 4.742188 -2.726562 5.171875 -2.316406 5.703125 -2.015625 C 6.234375 -1.722656 6.816406 -1.578125 7.453125 -1.578125 C 8.128906 -1.578125 8.734375 -1.722656 9.265625 -2.015625 C 9.804688 -2.316406 10.234375 -2.726562 10.546875 -3.25 C 10.867188 -3.769531 11.03125 -4.375 11.03125 -5.0625 L 11.03125 -11.1875 Z M 12.671875 -11.1875 "/></g></g></g><g fill="#000000" fill-opacity="1"><g transform="translate(153.469551, 204.71765)"><g><path d="M 9.109375 0 L 2.359375 0 L 2.359375 -1.65625 L 4.859375 -1.65625 L 4.859375 -9.515625 L 2.359375 -9.515625 L 2.359375 -11.171875 L 9.109375 -11.171875 L 9.109375 -9.515625 L 6.59375 -9.515625 L 6.59375 -1.65625 L 9.109375 -1.65625 Z M 9.109375 0 "/></g></g></g><g fill="#000000" fill-opacity="1"><g transform="translate(173.710354, 204.71765)"><g><path d="M 5.0625 0 L 5.0625 -9.515625 L 1.234375 -9.515625 L 1.234375 -11.171875 L 10.71875 -11.171875 L 10.71875 -9.515625 L 6.78125 -9.515625 L 6.78125 0 Z M 5.0625 0 "/></g></g></g><g fill="#000000" fill-opacity="1"><g transform="translate(194.429602, 204.71765)"><g><path d="M 2.421875 -11.171875 L 10.875 -11.171875 L 10.875 -9.515625 L 4.140625 -9.515625 L 4.140625 -6.5625 L 10 -6.5625 L 10 -4.890625 L 4.140625 -4.890625 L 4.140625 -1.65625 L 10.875 -1.65625 L 10.875 0 L 2.421875 0 Z M 2.421875 -11.171875 "/></g></g></g><g fill="#000000" fill-opacity="1"><g transform="translate(216.153617, 204.71765)"><g><path d="M 5.0625 0 L 5.0625 -9.515625 L 1.234375 -9.515625 L 1.234375 -11.171875 L 10.71875 -11.171875 L 10.71875 -9.515625 L 6.78125 -9.515625 L 6.78125 0 Z M 5.0625 0 "/></g></g></g><g fill="#000000" fill-opacity="1"><g transform="translate(236.872866, 204.71765)"><g><path d="M 11.1875 0 L 9.984375 -2.6875 L 4.078125 -2.6875 L 2.875 0 L 1.078125 0 L 6.125 -11.171875 L 8.0625 -11.171875 L 13.0625 0 Z M 6.171875 -7.28125 L 4.828125 -4.34375 L 9.234375 -4.34375 L 7.859375 -7.34375 C 7.722656 -7.675781 7.585938 -8.007812 7.453125 -8.34375 C 7.316406 -8.675781 7.175781 -9.023438 7.03125 -9.390625 C 6.882812 -9.015625 6.738281 -8.648438 6.59375 -8.296875 C 6.457031 -7.953125 6.316406 -7.613281 6.171875 -7.28125 Z M 6.171875 -7.28125 "/></g></g></g><g fill="#000000" fill-opacity="1"><g transform="translate(50.193939, 131.290384)"><g><path d="M 3.84375 3.234375 C 12 3.234375 22.09375 -5.53125 23.578125 -13.8125 C 24.0625 -16.71875 22.375 -18.484375 19.1875 -18.484375 C 12.390625 -18.484375 5.09375 -12.609375 2.359375 -8.609375 C 2.359375 -8.609375 2.296875 -8.5 2.296875 -8.4375 C 2.296875 -8.28125 2.46875 -8.109375 2.625 -8.109375 C 2.734375 -8.109375 2.84375 -8.171875 2.90625 -8.28125 C 5.59375 -12.234375 12.609375 -17.875 19.1875 -17.875 C 21.984375 -17.875 23.40625 -16.390625 22.921875 -13.921875 C 21.546875 -5.921875 11.671875 2.578125 3.84375 2.578125 C 1.8125 2.578125 0.765625 1.859375 0.984375 0.65625 C 1.265625 -0.828125 3.125 -2.734375 6.140625 -4.109375 C 4.765625 -2.25 3.734375 -0.765625 3.40625 -0.171875 C 3.34375 -0.109375 3.34375 -0.0625 3.34375 0 C 3.34375 0.171875 3.515625 0.328125 3.671875 0.328125 C 3.78125 0.328125 3.890625 0.21875 3.953125 0.171875 C 4.28125 -0.546875 5.59375 -2.40625 7.296875 -4.609375 C 9.15625 -5.3125 11.453125 -5.75 13.984375 -5.75 C 15.125 -5.75 16.34375 -5.640625 17.484375 -5.421875 L 17.546875 -5.421875 C 17.703125 -5.421875 17.875 -5.59375 17.875 -5.75 C 17.875 -5.921875 17.765625 -6.03125 17.59375 -6.078125 C 16.390625 -6.3125 15.1875 -6.359375 13.984375 -6.359375 C 11.734375 -6.359375 9.703125 -6.03125 7.953125 -5.484375 C 10.46875 -8.71875 13.65625 -12.5 16.0625 -14.796875 C 16.125 -14.859375 16.171875 -14.90625 16.171875 -15.015625 C 16.171875 -15.1875 16.0625 -15.359375 15.84375 -15.359375 C 15.796875 -15.359375 15.6875 -15.296875 15.625 -15.25 C 13 -12.78125 9.484375 -8.5 6.859375 -5.09375 C 3.125 -3.625 0.71875 -1.265625 0.390625 0.546875 C 0.109375 2.1875 1.421875 3.234375 3.84375 3.234375 Z M 3.84375 3.234375 "/></g></g></g><g fill="#000000" fill-opacity="1"><g transform="translate(73.00419, 131.290384)"><g><path d="M 7.40625 0.0625 C 9.328125 0.0625 14.359375 -2.03125 17.4375 -4.21875 C 17.484375 -4.28125 17.546875 -4.390625 17.546875 -4.5 C 17.546875 -4.65625 17.4375 -4.765625 17.265625 -4.765625 C 17.15625 -4.765625 17.109375 -4.765625 17.046875 -4.71875 C 13.984375 -2.40625 9.09375 -0.609375 7.40625 -0.609375 C 6.46875 -0.609375 6.03125 -0.875 6.03125 -1.59375 C 6.03125 -2.625 6.90625 -3.953125 7.5625 -4.875 C 7.953125 -5.421875 8.171875 -5.75 8.171875 -5.96875 C 8.171875 -6.203125 8 -6.359375 7.78125 -6.359375 C 7.515625 -6.359375 6.859375 -5.921875 5.703125 -5.046875 C 5.375 -5.640625 4.984375 -5.859375 4.171875 -5.859375 C 2.296875 -5.859375 -2.625 -2.796875 -2.625 -0.9375 C -2.625 -0.390625 -2.25 -0.0625 -1.640625 -0.0625 C -0.109375 -0.0625 3.296875 -2.578125 5.59375 -4.21875 C 6.03125 -4.546875 6.421875 -4.828125 6.6875 -4.984375 C 6.796875 -5.09375 6.96875 -5.046875 6.796875 -4.875 C 6.140625 -3.890625 5.421875 -2.6875 5.421875 -1.59375 C 5.421875 -0.5 6.078125 0.0625 7.40625 0.0625 Z M -1.640625 -0.71875 C -1.921875 -0.71875 -2.03125 -0.765625 -2.03125 -0.9375 C -2.03125 -2.25 2.296875 -5.265625 4.171875 -5.265625 C 4.765625 -5.265625 4.9375 -5.15625 5.15625 -4.71875 C 2.90625 -3.015625 -0.328125 -0.71875 -1.640625 -0.71875 Z M -1.640625 -0.71875 "/></g></g></g><g fill="#000000" fill-opacity="1"><g transform="translate(89.015237, 131.290384)"><g><path d="M -1.53125 0 C -1.3125 0 -0.828125 -0.4375 -0.171875 -0.875 C 1.96875 -2.40625 6.3125 -5.59375 8.0625 -5.59375 C 8.28125 -5.59375 8.328125 -5.421875 8.328125 -5.3125 C 8.328125 -5.046875 8.109375 -4.171875 7.890625 -3.40625 C 7.734375 -2.6875 7.5625 -1.96875 7.5625 -1.640625 C 7.5625 -0.984375 8.0625 -0.609375 8.828125 -0.609375 C 10.796875 -0.609375 14.25 -2.03125 17.59375 -4.21875 C 17.703125 -4.28125 17.765625 -4.390625 17.765625 -4.5 C 17.765625 -4.65625 17.59375 -4.765625 17.4375 -4.765625 L 17.265625 -4.765625 C 13.984375 -2.578125 10.640625 -1.203125 8.828125 -1.203125 C 8.390625 -1.203125 8.21875 -1.375 8.21875 -1.640625 C 8.21875 -1.921875 8.328125 -2.515625 8.546875 -3.234375 C 8.71875 -4.0625 8.9375 -4.9375 8.9375 -5.421875 C 8.9375 -5.921875 8.609375 -6.203125 8.0625 -6.203125 C 6.640625 -6.203125 4.0625 -4.71875 -0.28125 -1.59375 C -0.546875 -1.421875 -0.609375 -1.640625 -0.5 -1.8125 C 0.71875 -3.515625 3.078125 -6.25 5.265625 -7.890625 C 5.3125 -7.953125 5.375 -8.0625 5.375 -8.171875 C 5.375 -8.328125 5.265625 -8.4375 5.09375 -8.4375 C 4.984375 -8.4375 4.9375 -8.4375 4.875 -8.390625 C 1.703125 -5.96875 -1.8125 -1.3125 -1.96875 -0.609375 C -2.03125 -0.28125 -1.859375 0 -1.53125 0 Z M -1.53125 0 "/></g></g></g><g fill="#000000" fill-opacity="1"><g transform="translate(105.190771, 131.290384)"><g><path d="M 3.953125 -7.078125 C 4.0625 -7.078125 4.109375 -7.078125 4.171875 -7.1875 L 4.390625 -7.40625 C 4.546875 -7.671875 4.765625 -7.953125 4.875 -8.0625 C 4.9375 -8.109375 4.9375 -8.21875 4.9375 -8.28125 C 4.9375 -8.4375 4.828125 -8.609375 4.65625 -8.609375 C 4.546875 -8.609375 4.4375 -8.546875 4.390625 -8.5 C 4.28125 -8.328125 4.0625 -8 3.890625 -7.78125 L 3.671875 -7.5625 C 3.625 -7.515625 3.625 -7.453125 3.625 -7.34375 C 3.625 -7.1875 3.78125 -7.078125 3.953125 -7.078125 Z M 0.4375 0.328125 C 2.296875 0.328125 8.0625 -2.359375 11.015625 -4.21875 C 11.078125 -4.28125 11.125 -4.390625 11.125 -4.5 C 11.125 -4.65625 11.015625 -4.765625 10.796875 -4.765625 L 10.640625 -4.765625 C 7.78125 -2.90625 2.140625 -0.328125 0.4375 -0.328125 C -0.171875 -0.328125 -0.4375 -0.546875 -0.4375 -1.09375 C -0.4375 -1.859375 0.875 -3.734375 2.734375 -5.640625 C 2.796875 -5.703125 2.84375 -5.75 2.84375 -5.859375 C 2.84375 -6.03125 2.6875 -6.140625 2.515625 -6.140625 C 2.40625 -6.140625 2.359375 -6.140625 2.296875 -6.078125 C 0.28125 -4 -1.046875 -2.140625 -1.046875 -1.09375 C -1.046875 -0.21875 -0.5 0.328125 0.4375 0.328125 Z M 0.4375 0.328125 "/></g></g></g><g fill="#000000" fill-opacity="1"><g transform="translate(114.786425, 131.290384)"><g/></g></g><g fill="#000000" fill-opacity="1"><g transform="translate(126.90437, 131.290384)"><g><path d="M 22.09375 0.609375 C 22.375 0.609375 22.703125 0.21875 23.03125 -0.109375 C 23.140625 -0.28125 23.140625 -0.4375 23.03125 -0.5 C 29.546875 -7.953125 33.9375 -13.875 33.9375 -16.015625 C 33.9375 -16.71875 33.5 -17.109375 32.78125 -17.109375 C 30.703125 -17.109375 25.390625 -12.34375 20.390625 -7.015625 C 20.0625 -6.640625 19.953125 -6.796875 20.234375 -7.125 C 21.9375 -9.65625 23.078125 -11.671875 23.078125 -12.9375 C 23.078125 -13.8125 22.53125 -14.3125 21.546875 -14.3125 C 20.234375 -14.3125 18.484375 -13.4375 16.609375 -12.0625 C 17.265625 -13.484375 17.703125 -14.75 17.703125 -15.734375 C 17.703125 -16.9375 17 -17.703125 15.953125 -17.703125 C 13.65625 -17.703125 11.015625 -16.015625 8.28125 -12.890625 C 8.21875 -12.828125 8.21875 -12.78125 8.21875 -12.671875 C 8.21875 -12.5 8.328125 -12.390625 8.5 -12.390625 C 8.609375 -12.390625 8.71875 -12.390625 8.765625 -12.5 C 11.40625 -15.46875 13.875 -17.046875 15.953125 -17.046875 C 16.671875 -17.046875 17.046875 -16.5625 17.046875 -15.734375 C 17.046875 -14.578125 16.453125 -12.9375 15.515625 -11.234375 C 10.796875 -7.515625 5.8125 -1.59375 5.8125 -0.328125 C 5.8125 -0.0625 6.03125 0.171875 6.359375 0.171875 C 7.84375 0.171875 13.21875 -5.8125 16.015625 -10.859375 C 18.09375 -12.5 20.125 -13.65625 21.546875 -13.65625 C 22.15625 -13.65625 22.421875 -13.4375 22.421875 -12.9375 C 22.421875 -11.1875 19.6875 -7.40625 17.546875 -4.390625 C 16.890625 -3.453125 16.28125 -2.625 15.84375 -1.96875 C 15.734375 -1.8125 15.796875 -1.640625 15.953125 -1.53125 C 16.125 -1.421875 16.28125 -1.421875 16.390625 -1.59375 C 20.9375 -7.234375 30.15625 -16.5 32.78125 -16.5 C 33.171875 -16.5 33.28125 -16.34375 33.28125 -16.015625 C 33.28125 -14.09375 28.734375 -7.953125 22.15625 -0.4375 C 21.9375 -0.171875 21.765625 0.0625 21.765625 0.21875 C 21.765625 0.4375 21.875 0.609375 22.09375 0.609375 Z M 6.796875 -0.609375 C 6.53125 -0.5 6.53125 -0.609375 6.640625 -0.828125 C 7.34375 -2.25 10.203125 -5.640625 13.375 -8.609375 C 14.203125 -9.375 14.75 -9.765625 14.6875 -9.703125 C 12.171875 -5.8125 8.328125 -1.484375 6.796875 -0.609375 Z M 6.796875 -0.609375 "/></g></g></g><g fill="#000000" fill-opacity="1"><g transform="translate(158.597455, 131.290384)"><g><path d="M 1.8125 0.171875 C 3.515625 0.171875 8.828125 -1.375 12.671875 -4.21875 C 12.78125 -4.28125 12.828125 -4.390625 12.828125 -4.5 C 12.828125 -4.65625 12.671875 -4.765625 12.5 -4.765625 C 12.453125 -4.765625 12.390625 -4.765625 12.34375 -4.71875 C 8.546875 -1.96875 3.40625 -0.5 1.8125 -0.5 C 0.546875 -0.5 -0.109375 -0.828125 -0.109375 -1.53125 C -0.109375 -2.25 0.4375 -3.125 1.15625 -3.890625 C 1.484375 -3.734375 1.921875 -3.671875 2.515625 -3.671875 C 3.515625 -3.671875 4.765625 -4.5 4.765625 -5.203125 C 4.765625 -5.75 4.390625 -6.078125 3.78125 -6.078125 C 1.96875 -6.078125 -0.765625 -3.34375 -0.765625 -1.53125 C -0.765625 -0.4375 0.21875 0.171875 1.8125 0.171875 Z M 2.515625 -4.28125 C 2.140625 -4.28125 1.859375 -4.328125 1.640625 -4.390625 C 2.359375 -4.984375 3.125 -5.421875 3.78125 -5.421875 C 4.0625 -5.421875 4.171875 -5.375 4.171875 -5.203125 C 4.171875 -4.875 3.125 -4.28125 2.515625 -4.28125 Z M 2.515625 -4.28125 "/></g></g></g><g fill="#000000" fill-opacity="1"><g transform="translate(169.838082, 131.290384)"><g><path d="M 5.53125 0.0625 C 7.625 0.0625 12.5 -1.640625 16.234375 -4.21875 C 16.34375 -4.28125 16.390625 -4.390625 16.390625 -4.5 C 16.390625 -4.65625 16.28125 -4.828125 16.0625 -4.828125 C 16.015625 -4.828125 15.953125 -4.765625 15.90625 -4.765625 C 12.28125 -2.25 7.515625 -0.609375 5.53125 -0.609375 C 4.609375 -0.609375 4.171875 -0.875 4.171875 -1.59375 C 4.171875 -2.078125 4.71875 -3.078125 5.53125 -4.4375 C 5.53125 -4.4375 5.53125 -4.4375 5.53125 -4.390625 C 5.53125 -4.21875 5.703125 -4.0625 5.859375 -4.0625 C 6.03125 -4.0625 6.140625 -4.171875 6.203125 -4.328125 C 6.203125 -4.65625 6.140625 -4.9375 6.03125 -5.15625 L 7.078125 -6.6875 C 15.25 -14.25 26.484375 -25.984375 26.484375 -27.421875 C 26.484375 -27.859375 26.203125 -28.125 25.71875 -28.125 C 23.734375 -28.125 12.453125 -15.25 6.796875 -7.296875 C 6.25 -6.796875 5.75 -6.359375 5.265625 -5.859375 C 5.046875 -6.03125 4.71875 -6.078125 4.390625 -6.078125 C 1.921875 -6.078125 -1.921875 -2.84375 -1.921875 -0.828125 C -1.921875 -0.328125 -1.59375 -0.0625 -1.203125 -0.0625 C -0.28125 -0.0625 1.75 -1.8125 4.609375 -4.4375 C 4.828125 -4.609375 4.9375 -4.5 4.765625 -4.28125 C 4 -3.015625 3.5625 -2.078125 3.5625 -1.59375 C 3.5625 -0.5 4.28125 0.0625 5.53125 0.0625 Z M 9.265625 -9.65625 C 15.1875 -17.375 24.234375 -27.53125 25.71875 -27.53125 C 25.875 -27.53125 25.875 -27.46875 25.875 -27.421875 C 25.875 -26.375 16.890625 -17 9.265625 -9.65625 Z M -1.09375 -0.71875 C -1.15625 -0.71875 -1.265625 -0.71875 -1.265625 -0.875 C -1.265625 -2.515625 2.296875 -5.421875 4.390625 -5.421875 L 4.765625 -5.421875 C 1.703125 -2.578125 -0.546875 -0.71875 -1.09375 -0.71875 Z M -1.09375 -0.71875 "/></g></g></g><g fill="#000000" fill-opacity="1"><g transform="translate(184.69764, 131.290384)"><g><path d="M 1.8125 0.171875 C 3.515625 0.171875 8.828125 -1.375 12.671875 -4.21875 C 12.78125 -4.28125 12.828125 -4.390625 12.828125 -4.5 C 12.828125 -4.65625 12.671875 -4.765625 12.5 -4.765625 C 12.453125 -4.765625 12.390625 -4.765625 12.34375 -4.71875 C 8.546875 -1.96875 3.40625 -0.5 1.8125 -0.5 C 0.546875 -0.5 -0.109375 -0.828125 -0.109375 -1.53125 C -0.109375 -2.25 0.4375 -3.125 1.15625 -3.890625 C 1.484375 -3.734375 1.921875 -3.671875 2.515625 -3.671875 C 3.515625 -3.671875 4.765625 -4.5 4.765625 -5.203125 C 4.765625 -5.75 4.390625 -6.078125 3.78125 -6.078125 C 1.96875 -6.078125 -0.765625 -3.34375 -0.765625 -1.53125 C -0.765625 -0.4375 0.21875 0.171875 1.8125 0.171875 Z M 2.515625 -4.28125 C 2.140625 -4.28125 1.859375 -4.328125 1.640625 -4.390625 C 2.359375 -4.984375 3.125 -5.421875 3.78125 -5.421875 C 4.0625 -5.421875 4.171875 -5.375 4.171875 -5.203125 C 4.171875 -4.875 3.125 -4.28125 2.515625 -4.28125 Z M 2.515625 -4.28125 "/></g></g></g><g fill="#000000" fill-opacity="1"><g transform="translate(195.938267, 131.290384)"><g><path d="M 3.953125 -7.078125 C 4.0625 -7.078125 4.109375 -7.078125 4.171875 -7.1875 L 4.390625 -7.40625 C 4.546875 -7.671875 4.765625 -7.953125 4.875 -8.0625 C 4.9375 -8.109375 4.9375 -8.21875 4.9375 -8.28125 C 4.9375 -8.4375 4.828125 -8.609375 4.65625 -8.609375 C 4.546875 -8.609375 4.4375 -8.546875 4.390625 -8.5 C 4.28125 -8.328125 4.0625 -8 3.890625 -7.78125 L 3.671875 -7.5625 C 3.625 -7.515625 3.625 -7.453125 3.625 -7.34375 C 3.625 -7.1875 3.78125 -7.078125 3.953125 -7.078125 Z M 0.4375 0.328125 C 2.296875 0.328125 8.0625 -2.359375 11.015625 -4.21875 C 11.078125 -4.28125 11.125 -4.390625 11.125 -4.5 C 11.125 -4.65625 11.015625 -4.765625 10.796875 -4.765625 L 10.640625 -4.765625 C 7.78125 -2.90625 2.140625 -0.328125 0.4375 -0.328125 C -0.171875 -0.328125 -0.4375 -0.546875 -0.4375 -1.09375 C -0.4375 -1.859375 0.875 -3.734375 2.734375 -5.640625 C 2.796875 -5.703125 2.84375 -5.75 2.84375 -5.859375 C 2.84375 -6.03125 2.6875 -6.140625 2.515625 -6.140625 C 2.40625 -6.140625 2.359375 -6.140625 2.296875 -6.078125 C 0.28125 -4 -1.046875 -2.140625 -1.046875 -1.09375 C -1.046875 -0.21875 -0.5 0.328125 0.4375 0.328125 Z M 0.4375 0.328125 "/></g></g></g><g fill="#000000" fill-opacity="1"><g transform="translate(205.533921, 131.290384)"><g><path d="M 0.71875 5.921875 C 4 5.921875 13.546875 -0.28125 19.03125 -4.21875 C 19.078125 -4.28125 19.140625 -4.390625 19.140625 -4.5 C 19.140625 -4.65625 19.03125 -4.765625 18.8125 -4.765625 C 18.75 -4.765625 18.703125 -4.765625 18.640625 -4.71875 C 13.21875 -0.765625 3.84375 5.265625 0.71875 5.265625 C 0.0625 5.265625 -0.171875 5.046875 -0.171875 4.5 C -0.171875 2.90625 2.625 0.171875 5.3125 -2.46875 C 7.671875 -4.828125 10.03125 -7.125 10.03125 -8.4375 C 10.03125 -9.09375 9.265625 -9.546875 8.328125 -10.421875 C 10.421875 -12.671875 11.953125 -14.6875 11.953125 -15.46875 C 11.953125 -15.84375 11.734375 -16.125 11.34375 -16.125 C 9.65625 -16.125 5.8125 -13.21875 5.8125 -11.84375 C 5.8125 -11.34375 6.359375 -10.96875 7.34375 -10.3125 C 5.53125 -8.390625 3.234375 -6.3125 1.046875 -4.71875 C 0.984375 -4.65625 0.9375 -4.546875 0.9375 -4.5 C 0.9375 -4.28125 1.046875 -4.171875 1.203125 -4.171875 C 1.3125 -4.171875 1.375 -4.171875 1.421875 -4.21875 C 3.40625 -5.640625 5.859375 -7.84375 7.890625 -9.984375 C 8.984375 -9.21875 9.375 -8.828125 9.375 -8.4375 C 9.375 -7.40625 7.234375 -5.265625 4.875 -2.953125 C 2.1875 -0.28125 -0.765625 2.625 -0.765625 4.5 C -0.765625 5.375 -0.328125 5.921875 0.71875 5.921875 Z M 7.78125 -10.75 C 6.796875 -11.40625 6.46875 -11.734375 6.46875 -11.84375 C 6.46875 -12.78125 9.59375 -15.125 11.078125 -15.40625 C 11.234375 -15.46875 11.34375 -15.359375 11.296875 -15.1875 C 10.90625 -14.25 8.9375 -11.953125 7.78125 -10.75 Z M 7.78125 -10.75 "/></g></g></g><g fill="#000000" fill-opacity="1"><g transform="translate(223.135104, 131.290384)"><g><path d="M -0.328125 0.4375 C 1.421875 0.4375 3.125 -2.515625 2.796875 -4.65625 C 2.796875 -4.765625 2.84375 -4.875 2.953125 -4.765625 C 6.140625 -2.796875 10.359375 -2.578125 13.21875 -4.21875 C 13.328125 -4.28125 13.4375 -4.390625 13.4375 -4.5 C 13.4375 -4.65625 13.265625 -4.765625 13.109375 -4.765625 L 12.9375 -4.765625 C 10.3125 -3.234375 6.46875 -3.453125 3.515625 -5.203125 C 3.40625 -5.265625 3.40625 -5.3125 3.515625 -5.375 C 3.5625 -5.421875 3.671875 -5.421875 3.734375 -5.484375 C 3.890625 -5.484375 3.953125 -5.59375 3.953125 -5.75 C 3.953125 -5.921875 3.84375 -6.078125 3.671875 -6.078125 C 3.625 -6.078125 3.5625 -6.078125 3.5625 -6.03125 C 3.296875 -5.96875 3.015625 -5.859375 2.796875 -5.75 C 2.6875 -5.703125 2.6875 -5.703125 2.578125 -5.75 C 2.359375 -5.8125 2.140625 -5.640625 2.03125 -5.421875 C 2.03125 -5.375 1.96875 -5.375 1.96875 -5.3125 C 0.0625 -4.171875 -1.375 -2.359375 -1.375 -0.828125 C -1.375 -0.0625 -0.984375 0.4375 -0.328125 0.4375 Z M -0.328125 -0.171875 C -0.609375 -0.171875 -0.765625 -0.390625 -0.765625 -0.828125 C -0.765625 -2.078125 0.5 -3.671875 2.1875 -4.71875 C 2.46875 -2.953125 0.984375 -0.171875 -0.328125 -0.171875 Z M -0.328125 -0.171875 "/></g></g></g><g fill="#000000" fill-opacity="1"><g transform="translate(234.978888, 131.290384)"><g><path d="M -0.21875 2.625 C 1.59375 2.625 3.953125 0.71875 5.046875 -0.875 L 5.203125 -0.984375 C 6.640625 -1.421875 8.390625 -1.96875 10.25 -2.515625 C 12.109375 -3.078125 14.09375 -3.625 15.734375 -4.171875 C 15.90625 -4.21875 15.953125 -4.328125 15.953125 -4.5 C 15.953125 -4.65625 15.84375 -4.765625 15.6875 -4.765625 L 15.578125 -4.765625 C 13.921875 -4.21875 11.953125 -3.671875 10.09375 -3.125 C 8.546875 -2.6875 7.015625 -2.1875 5.703125 -1.8125 C 5.640625 -1.75 5.59375 -1.8125 5.59375 -1.921875 C 5.640625 -2.03125 5.640625 -2.140625 5.703125 -2.1875 C 5.703125 -2.734375 5.3125 -2.953125 4.65625 -2.953125 C 4.21875 -2.953125 3.671875 -2.84375 3.078125 -2.734375 C 2.46875 -2.625 1.8125 -2.515625 1.3125 -2.515625 C 0.828125 -2.515625 0.65625 -2.625 0.65625 -2.796875 C 0.65625 -4.0625 3.515625 -6.25 5.15625 -6.25 C 5.421875 -6.25 5.484375 -6.140625 5.484375 -5.96875 C 5.484375 -5.59375 4.984375 -4.984375 4.609375 -4.765625 C 4.5 -4.71875 4.4375 -4.609375 4.4375 -4.5 C 4.4375 -4.28125 4.609375 -4.171875 4.765625 -4.171875 C 4.828125 -4.171875 4.875 -4.171875 4.9375 -4.21875 C 5.421875 -4.5 5.921875 -5.15625 6.078125 -5.8125 C 6.140625 -5.859375 6.140625 -5.96875 6.140625 -6.03125 C 6.140625 -6.53125 5.75 -6.859375 5.15625 -6.859375 C 3.1875 -6.859375 0 -4.390625 0 -2.796875 C 0 -2.1875 0.5 -1.921875 1.3125 -1.921875 C 1.859375 -1.921875 2.515625 -2.03125 3.1875 -2.140625 C 3.625 -2.1875 4.984375 -2.40625 5.046875 -2.25 C 5.15625 -2.078125 4.9375 -1.8125 4.765625 -1.53125 C 4.765625 -1.484375 4.71875 -1.484375 4.65625 -1.484375 C 2.46875 -0.65625 -1.15625 0.875 -1.15625 1.921875 C -1.15625 2.40625 -0.828125 2.625 -0.21875 2.625 Z M -0.21875 1.96875 C -0.5 1.96875 -0.546875 1.96875 -0.546875 1.859375 C -0.546875 1.59375 1.375 0.5 3.671875 -0.4375 C 3.84375 -0.4375 3.890625 -0.390625 3.78125 -0.28125 C 2.6875 0.875 1.046875 1.96875 -0.21875 1.96875 Z M -0.21875 1.96875 "/></g></g></g></svg>