<svg xmlns="http://www.w3.org/2000/svg" xmlns:xlink="http://www.w3.org/1999/xlink" width="309" zoomAndPan="magnify" viewBox="0 0 231.75 233.999995" height="312" preserveAspectRatio="xMidYMid meet" version="1.0"><defs><g/><clipPath id="b268abf458"><path d="M 0 0.125 L 231.5 0.125 L 231.5 233.871094 L 0 233.871094 Z M 0 0.125 " clip-rule="nonzero"/></clipPath><clipPath id="996d02b91e"><path d="M 64 47 L 150 47 L 150 164 L 64 164 Z M 64 47 " clip-rule="nonzero"/></clipPath><clipPath id="82a6973d3a"><path d="M 109.648438 28.839844 L 157.253906 145.746094 L 112.179688 164.097656 L 64.578125 47.191406 Z M 109.648438 28.839844 " clip-rule="nonzero"/></clipPath><clipPath id="c3ec315723"><path d="M 117.085938 47.105469 L 149.753906 127.328125 L 112.121094 163.949219 L 64.578125 47.191406 Z M 117.085938 47.105469 " clip-rule="nonzero"/></clipPath><clipPath id="0fcb7c0b33"><path d="M 43 0.125 L 188 0.125 L 188 44 L 43 44 Z M 43 0.125 " clip-rule="nonzero"/></clipPath><clipPath id="29716a9582"><path d="M 187.847656 43.289062 L 43.207031 43.179688 L 43.238281 0.125 L 187.878906 0.234375 Z M 187.847656 43.289062 " clip-rule="nonzero"/></clipPath><clipPath id="4cb93a1992"><path d="M 168.125 43.273438 L 62.9375 43.195312 L 43.246094 0.125 L 187.878906 0.234375 Z M 168.125 43.273438 " clip-rule="nonzero"/></clipPath><clipPath id="c59e4f45d0"><path d="M 122 47 L 166 47 L 166 96 L 122 96 Z M 122 47 " clip-rule="nonzero"/></clipPath><clipPath id="b42e07ab5f"><path d="M 165.941406 96.003906 L 121.976562 95.972656 L 122.011719 47.195312 L 165.980469 47.226562 Z M 165.941406 96.003906 " clip-rule="nonzero"/></clipPath><clipPath id="6d835c86a8"><path d="M 146.21875 95.988281 L 141.699219 95.984375 L 122.011719 47.304688 L 165.980469 47.339844 Z M 146.21875 95.988281 " clip-rule="nonzero"/></clipPath></defs><g clip-path="url(#b268abf458)"><path fill="#ffffff" d="M 0 0.125 L 231.5 0.125 L 231.5 233.875 L 0 233.875 Z M 0 0.125 " fill-opacity="1" fill-rule="nonzero"/></g><g clip-path="url(#996d02b91e)"><g clip-path="url(#82a6973d3a)"><g clip-path="url(#c3ec315723)"><path fill="#ff8311" d="M 109.648438 28.839844 L 157.179688 145.570312 L 112.109375 163.921875 L 64.578125 47.191406 Z M 109.648438 28.839844 " fill-opacity="1" fill-rule="nonzero"/></g></g></g><g clip-path="url(#0fcb7c0b33)"><g clip-path="url(#29716a9582)"><g clip-path="url(#4cb93a1992)"><path fill="#ff8311" d="M 187.847656 43.289062 L 43.207031 43.179688 L 43.238281 0.125 L 187.878906 0.234375 Z M 187.847656 43.289062 " fill-opacity="1" fill-rule="nonzero"/></g></g></g><g clip-path="url(#c59e4f45d0)"><g clip-path="url(#b42e07ab5f)"><g clip-path="url(#6d835c86a8)"><path fill="#ffffff" d="M 165.941406 96.003906 L 121.976562 95.972656 L 122.011719 47.367188 L 165.980469 47.398438 Z M 165.941406 96.003906 " fill-opacity="1" fill-rule="nonzero"/></g></g></g><g fill="#ffffff" fill-opacity="1"><g transform="translate(30.454359, 205.204477)"><g><path d="M 5.875 -21.25 L 5.875 -15.21875 L 13.265625 -15.21875 L 13.265625 -10.609375 L 5.875 -10.609375 L 5.875 0 L 1.25 0 L 1.25 -25.875 L 13.265625 -25.875 L 13.265625 -21.25 Z M 5.875 -21.25 "/></g></g></g><g fill="#ffffff" fill-opacity="1"><g transform="translate(44.054242, 205.204477)"><g><path d="M 6.46875 -21.25 C 7.644531 -24.332031 9.53125 -25.875 12.125 -25.875 L 14.265625 -25.875 C 16.796875 -25.875 18.65625 -24.304688 19.84375 -21.171875 L 26.015625 -4.625 L 26.015625 0 L 22.765625 0 L 19.4375 -8.875 L 6.90625 -8.875 L 3.625 0 L 0.328125 0 L 0.328125 -4.625 Z M 8.609375 -13.53125 L 17.734375 -13.53125 L 13.1875 -25.828125 Z M 8.609375 -13.53125 "/></g></g></g><g fill="#ffffff" fill-opacity="1"><g transform="translate(70.404013, 205.204477)"><g><path d="M 16.484375 -5.609375 C 16.484375 -3.816406 15.992188 -2.429688 15.015625 -1.453125 C 14.046875 -0.484375 12.660156 0 10.859375 0 L 6.875 0 C 5.070312 0 3.679688 -0.484375 2.703125 -1.453125 C 1.734375 -2.429688 1.25 -3.816406 1.25 -5.609375 L 1.25 -25.875 L 5.875 -25.875 L 5.875 -4.625 L 11.859375 -4.625 L 11.859375 -25.875 L 16.484375 -25.875 Z M 16.484375 -5.609375 "/></g></g></g><g fill="#ffffff" fill-opacity="1"><g transform="translate(88.142994, 205.204477)"><g><path d="M 17.1875 -15.21875 C 19.300781 -15.21875 20.929688 -14.671875 22.078125 -13.578125 C 23.222656 -12.484375 23.796875 -10.851562 23.796875 -8.6875 C 23.796875 -5.976562 22.914062 -3.851562 21.15625 -2.3125 C 19.394531 -0.769531 16.863281 0 13.5625 0 L 9.203125 0 C 7.003906 0 5.242188 -0.242188 3.921875 -0.734375 C 2.609375 -1.234375 1.632812 -1.925781 1 -2.8125 L 1 -9.171875 C 1.4375 -7.859375 2.285156 -6.769531 3.546875 -5.90625 C 4.804688 -5.050781 6.566406 -4.625 8.828125 -4.625 L 19.171875 -4.625 L 19.171875 -10.609375 L 8.421875 -10.609375 C 6.003906 -10.609375 4.144531 -11.164062 2.84375 -12.28125 C 1.539062 -13.40625 0.890625 -15.039062 0.890625 -17.1875 C 0.890625 -18.507812 1.144531 -19.707031 1.65625 -20.78125 C 2.175781 -21.851562 2.890625 -22.765625 3.796875 -23.515625 C 4.710938 -24.265625 5.796875 -24.84375 7.046875 -25.25 C 8.304688 -25.664062 9.675781 -25.875 11.15625 -25.875 L 14.671875 -25.875 C 15.503906 -25.875 16.335938 -25.8125 17.171875 -25.6875 C 18.015625 -25.5625 18.804688 -25.375 19.546875 -25.125 C 20.285156 -24.882812 20.941406 -24.597656 21.515625 -24.265625 C 22.097656 -23.929688 22.550781 -23.539062 22.875 -23.09375 L 22.875 -16.734375 C 22.40625 -18.066406 21.546875 -19.148438 20.296875 -19.984375 C 19.054688 -20.828125 17.289062 -21.25 15 -21.25 L 5.5 -21.25 L 5.5 -15.21875 Z M 17.1875 -15.21875 "/></g></g></g><g fill="#ffffff" fill-opacity="1"><g transform="translate(112.82973, 205.204477)"><g><path d="M 10.9375 -21.25 L 10.9375 0 L 6.3125 0 L 6.3125 -21.25 L 0.328125 -21.25 L 0.328125 -25.875 L 16.921875 -25.875 L 16.921875 -21.25 Z M 10.9375 -21.25 "/></g></g></g><g fill="#ffffff" fill-opacity="1"><g transform="translate(130.088279, 205.204477)"><g><path d="M 5.875 -25.875 L 5.875 0 L 1.25 0 L 1.25 -25.875 Z M 5.875 -25.875 "/></g></g></g><g fill="#ffffff" fill-opacity="1"><g transform="translate(137.220828, 205.204477)"><g><path d="M 30.296875 0 L 25.6875 0 L 5.875 -19.296875 L 5.875 0 L 1.25 0 L 1.25 -25.875 L 5.875 -25.875 L 25.6875 -6.609375 L 25.6875 -25.875 L 30.296875 -25.875 Z M 30.296875 0 "/></g></g></g><g fill="#ffffff" fill-opacity="1"><g transform="translate(168.781424, 205.204477)"><g><path d="M 17.953125 -25.875 C 19.898438 -25.875 21.660156 -25.59375 23.234375 -25.03125 C 24.816406 -24.476562 26.160156 -23.679688 27.265625 -22.640625 C 28.378906 -21.609375 29.226562 -20.347656 29.8125 -18.859375 C 30.40625 -17.367188 30.703125 -15.703125 30.703125 -13.859375 L 30.703125 -12.015625 C 30.703125 -10.210938 30.40625 -8.570312 29.8125 -7.09375 C 29.226562 -5.613281 28.378906 -4.347656 27.265625 -3.296875 C 26.160156 -2.253906 24.816406 -1.441406 23.234375 -0.859375 C 21.660156 -0.285156 19.898438 0 17.953125 0 L 13.890625 0 C 11.941406 0 10.179688 -0.285156 8.609375 -0.859375 C 7.035156 -1.441406 5.691406 -2.253906 4.578125 -3.296875 C 3.472656 -4.347656 2.625 -5.613281 2.03125 -7.09375 C 1.4375 -8.570312 1.140625 -10.210938 1.140625 -12.015625 L 1.140625 -13.859375 C 1.140625 -15.703125 1.4375 -17.367188 2.03125 -18.859375 C 2.625 -20.347656 3.472656 -21.609375 4.578125 -22.640625 C 5.691406 -23.679688 7.035156 -24.476562 8.609375 -25.03125 C 10.179688 -25.59375 11.941406 -25.875 13.890625 -25.875 Z M 26.09375 -13.859375 C 26.09375 -16.148438 25.425781 -17.953125 24.09375 -19.265625 C 22.757812 -20.585938 20.960938 -21.25 18.703125 -21.25 L 13.15625 -21.25 C 10.882812 -21.25 9.085938 -20.585938 7.765625 -19.265625 C 6.453125 -17.953125 5.796875 -16.148438 5.796875 -13.859375 L 5.796875 -12.015625 C 5.796875 -10.898438 5.972656 -9.894531 6.328125 -9 C 6.691406 -8.101562 7.191406 -7.328125 7.828125 -6.671875 C 8.472656 -6.015625 9.242188 -5.507812 10.140625 -5.15625 C 11.046875 -4.800781 12.050781 -4.625 13.15625 -4.625 L 18.703125 -4.625 C 19.804688 -4.625 20.8125 -4.800781 21.71875 -5.15625 C 22.632812 -5.507812 23.410156 -6.015625 24.046875 -6.671875 C 24.691406 -7.328125 25.191406 -8.101562 25.546875 -9 C 25.910156 -9.894531 26.09375 -10.898438 26.09375 -12.015625 Z M 26.09375 -13.859375 "/></g></g></g><g fill="#ffffff" fill-opacity="1"><g transform="translate(70.395645, 224.015191)"><g><path d="M 4.484375 -11.5625 L 0.0625 -11.5625 L 0.0625 -11.890625 L 9.234375 -11.890625 L 9.234375 -11.5625 L 4.828125 -11.5625 L 4.828125 0 L 4.484375 0 Z M 4.484375 -11.5625 "/></g></g></g><g fill="#ffffff" fill-opacity="1"><g transform="translate(79.697313, 224.015191)"><g><path d="M 9.046875 -4.40625 L 1.234375 -4.40625 C 1.234375 -3.601562 1.410156 -2.890625 1.765625 -2.265625 C 2.117188 -1.640625 2.601562 -1.148438 3.21875 -0.796875 C 3.832031 -0.441406 4.523438 -0.265625 5.296875 -0.265625 C 5.898438 -0.265625 6.460938 -0.378906 6.984375 -0.609375 C 7.515625 -0.847656 7.945312 -1.1875 8.28125 -1.625 L 8.53125 -1.390625 C 8.144531 -0.929688 7.664062 -0.578125 7.09375 -0.328125 C 6.53125 -0.078125 5.929688 0.046875 5.296875 0.046875 C 4.460938 0.046875 3.710938 -0.140625 3.046875 -0.515625 C 2.390625 -0.898438 1.867188 -1.429688 1.484375 -2.109375 C 1.109375 -2.785156 0.921875 -3.550781 0.921875 -4.40625 C 0.921875 -5.25 1.09375 -6.003906 1.4375 -6.671875 C 1.789062 -7.347656 2.273438 -7.875 2.890625 -8.25 C 3.515625 -8.632812 4.207031 -8.828125 4.96875 -8.828125 C 5.726562 -8.828125 6.421875 -8.640625 7.046875 -8.265625 C 7.671875 -7.898438 8.160156 -7.382812 8.515625 -6.71875 C 8.867188 -6.0625 9.046875 -5.316406 9.046875 -4.484375 Z M 4.96875 -8.515625 C 4.289062 -8.515625 3.675781 -8.347656 3.125 -8.015625 C 2.570312 -7.691406 2.128906 -7.238281 1.796875 -6.65625 C 1.460938 -6.082031 1.273438 -5.4375 1.234375 -4.71875 L 8.734375 -4.71875 C 8.691406 -5.4375 8.5 -6.082031 8.15625 -6.65625 C 7.820312 -7.238281 7.378906 -7.691406 6.828125 -8.015625 C 6.273438 -8.347656 5.65625 -8.515625 4.96875 -8.515625 Z M 4.96875 -8.515625 "/></g></g></g><g fill="#ffffff" fill-opacity="1"><g transform="translate(89.660961, 224.015191)"><g><path d="M 5.234375 0.046875 C 4.398438 0.046875 3.65625 -0.140625 3 -0.515625 C 2.34375 -0.898438 1.832031 -1.425781 1.46875 -2.09375 C 1.101562 -2.769531 0.921875 -3.539062 0.921875 -4.40625 C 0.921875 -5.257812 1.101562 -6.023438 1.46875 -6.703125 C 1.832031 -7.378906 2.34375 -7.898438 3 -8.265625 C 3.65625 -8.640625 4.398438 -8.828125 5.234375 -8.828125 C 5.878906 -8.828125 6.472656 -8.707031 7.015625 -8.46875 C 7.566406 -8.226562 8.023438 -7.875 8.390625 -7.40625 L 8.15625 -7.15625 C 7.820312 -7.601562 7.398438 -7.941406 6.890625 -8.171875 C 6.378906 -8.398438 5.828125 -8.515625 5.234375 -8.515625 C 4.472656 -8.515625 3.789062 -8.335938 3.1875 -7.984375 C 2.582031 -7.640625 2.109375 -7.15625 1.765625 -6.53125 C 1.421875 -5.90625 1.25 -5.195312 1.25 -4.40625 C 1.25 -3.59375 1.421875 -2.875 1.765625 -2.25 C 2.109375 -1.632812 2.582031 -1.148438 3.1875 -0.796875 C 3.789062 -0.441406 4.472656 -0.265625 5.234375 -0.265625 C 5.828125 -0.265625 6.378906 -0.378906 6.890625 -0.609375 C 7.398438 -0.835938 7.820312 -1.175781 8.15625 -1.625 L 8.390625 -1.375 C 8.023438 -0.90625 7.566406 -0.550781 7.015625 -0.3125 C 6.472656 -0.0703125 5.878906 0.046875 5.234375 0.046875 Z M 5.234375 0.046875 "/></g></g></g><g fill="#ffffff" fill-opacity="1"><g transform="translate(98.9117, 224.015191)"><g><path d="M 5.984375 -8.828125 C 7.078125 -8.828125 7.9375 -8.515625 8.5625 -7.890625 C 9.1875 -7.265625 9.5 -6.363281 9.5 -5.1875 L 9.5 0 L 9.15625 0 L 9.15625 -5.1875 C 9.15625 -6.257812 8.878906 -7.082031 8.328125 -7.65625 C 7.773438 -8.226562 7 -8.515625 6 -8.515625 C 4.851562 -8.515625 3.945312 -8.171875 3.28125 -7.484375 C 2.625 -6.796875 2.296875 -5.890625 2.296875 -4.765625 L 2.296875 0 L 1.953125 0 L 1.953125 -8.78125 L 2.296875 -8.78125 L 2.296875 -6.4375 C 2.566406 -7.1875 3.019531 -7.769531 3.65625 -8.1875 C 4.289062 -8.613281 5.066406 -8.828125 5.984375 -8.828125 Z M 5.984375 -8.828125 "/></g></g></g><g fill="#ffffff" fill-opacity="1"><g transform="translate(110.250222, 224.015191)"><g><path d="M 5.1875 0.046875 C 4.375 0.046875 3.640625 -0.140625 2.984375 -0.515625 C 2.335938 -0.898438 1.832031 -1.429688 1.46875 -2.109375 C 1.101562 -2.785156 0.921875 -3.550781 0.921875 -4.40625 C 0.921875 -5.25 1.101562 -6.003906 1.46875 -6.671875 C 1.832031 -7.347656 2.335938 -7.875 2.984375 -8.25 C 3.640625 -8.632812 4.375 -8.828125 5.1875 -8.828125 C 5.988281 -8.828125 6.710938 -8.632812 7.359375 -8.25 C 8.015625 -7.875 8.523438 -7.347656 8.890625 -6.671875 C 9.253906 -6.003906 9.4375 -5.25 9.4375 -4.40625 C 9.4375 -3.550781 9.253906 -2.785156 8.890625 -2.109375 C 8.523438 -1.429688 8.015625 -0.898438 7.359375 -0.515625 C 6.710938 -0.140625 5.988281 0.046875 5.1875 0.046875 Z M 5.1875 -0.265625 C 5.914062 -0.265625 6.578125 -0.441406 7.171875 -0.796875 C 7.773438 -1.148438 8.25 -1.640625 8.59375 -2.265625 C 8.9375 -2.890625 9.109375 -3.601562 9.109375 -4.40625 C 9.109375 -5.195312 8.9375 -5.90625 8.59375 -6.53125 C 8.25 -7.15625 7.773438 -7.640625 7.171875 -7.984375 C 6.578125 -8.335938 5.914062 -8.515625 5.1875 -8.515625 C 4.445312 -8.515625 3.773438 -8.335938 3.171875 -7.984375 C 2.578125 -7.640625 2.109375 -7.15625 1.765625 -6.53125 C 1.421875 -5.90625 1.25 -5.195312 1.25 -4.40625 C 1.25 -3.601562 1.421875 -2.890625 1.765625 -2.265625 C 2.109375 -1.640625 2.578125 -1.148438 3.171875 -0.796875 C 3.773438 -0.441406 4.445312 -0.265625 5.1875 -0.265625 Z M 5.1875 -0.265625 "/></g></g></g><g fill="#ffffff" fill-opacity="1"><g transform="translate(120.604264, 224.015191)"><g><path d="M 1.953125 -12.609375 L 2.296875 -12.609375 L 2.296875 0 L 1.953125 0 Z M 1.953125 -12.609375 "/></g></g></g><g fill="#ffffff" fill-opacity="1"><g transform="translate(124.847721, 224.015191)"><g><path d="M 5.1875 0.046875 C 4.375 0.046875 3.640625 -0.140625 2.984375 -0.515625 C 2.335938 -0.898438 1.832031 -1.429688 1.46875 -2.109375 C 1.101562 -2.785156 0.921875 -3.550781 0.921875 -4.40625 C 0.921875 -5.25 1.101562 -6.003906 1.46875 -6.671875 C 1.832031 -7.347656 2.335938 -7.875 2.984375 -8.25 C 3.640625 -8.632812 4.375 -8.828125 5.1875 -8.828125 C 5.988281 -8.828125 6.710938 -8.632812 7.359375 -8.25 C 8.015625 -7.875 8.523438 -7.347656 8.890625 -6.671875 C 9.253906 -6.003906 9.4375 -5.25 9.4375 -4.40625 C 9.4375 -3.550781 9.253906 -2.785156 8.890625 -2.109375 C 8.523438 -1.429688 8.015625 -0.898438 7.359375 -0.515625 C 6.710938 -0.140625 5.988281 0.046875 5.1875 0.046875 Z M 5.1875 -0.265625 C 5.914062 -0.265625 6.578125 -0.441406 7.171875 -0.796875 C 7.773438 -1.148438 8.25 -1.640625 8.59375 -2.265625 C 8.9375 -2.890625 9.109375 -3.601562 9.109375 -4.40625 C 9.109375 -5.195312 8.9375 -5.90625 8.59375 -6.53125 C 8.25 -7.15625 7.773438 -7.640625 7.171875 -7.984375 C 6.578125 -8.335938 5.914062 -8.515625 5.1875 -8.515625 C 4.445312 -8.515625 3.773438 -8.335938 3.171875 -7.984375 C 2.578125 -7.640625 2.109375 -7.15625 1.765625 -6.53125 C 1.421875 -5.90625 1.25 -5.195312 1.25 -4.40625 C 1.25 -3.601562 1.421875 -2.890625 1.765625 -2.265625 C 2.109375 -1.640625 2.578125 -1.148438 3.171875 -0.796875 C 3.773438 -0.441406 4.445312 -0.265625 5.1875 -0.265625 Z M 5.1875 -0.265625 "/></g></g></g><g fill="#ffffff" fill-opacity="1"><g transform="translate(135.201763, 224.015191)"><g><path d="M 9.546875 -8.78125 L 9.546875 -0.78125 C 9.546875 0.625 9.210938 1.660156 8.546875 2.328125 C 7.878906 3.003906 6.859375 3.34375 5.484375 3.34375 C 4.679688 3.34375 3.9375 3.210938 3.25 2.953125 C 2.5625 2.691406 2.007812 2.335938 1.59375 1.890625 L 1.828125 1.640625 C 2.285156 2.085938 2.820312 2.425781 3.4375 2.65625 C 4.0625 2.894531 4.742188 3.015625 5.484375 3.015625 C 6.753906 3.015625 7.691406 2.710938 8.296875 2.109375 C 8.898438 1.503906 9.203125 0.554688 9.203125 -0.734375 L 9.203125 -2.9375 C 8.898438 -2.132812 8.394531 -1.488281 7.6875 -1 C 6.976562 -0.519531 6.160156 -0.28125 5.234375 -0.28125 C 4.421875 -0.28125 3.679688 -0.460938 3.015625 -0.828125 C 2.359375 -1.203125 1.84375 -1.710938 1.46875 -2.359375 C 1.101562 -3.015625 0.921875 -3.75 0.921875 -4.5625 C 0.921875 -5.382812 1.101562 -6.117188 1.46875 -6.765625 C 1.84375 -7.421875 2.359375 -7.925781 3.015625 -8.28125 C 3.679688 -8.644531 4.421875 -8.828125 5.234375 -8.828125 C 6.160156 -8.828125 6.976562 -8.585938 7.6875 -8.109375 C 8.394531 -7.640625 8.898438 -7.007812 9.203125 -6.21875 L 9.203125 -8.78125 Z M 5.234375 -0.609375 C 5.992188 -0.609375 6.675781 -0.773438 7.28125 -1.109375 C 7.882812 -1.441406 8.351562 -1.910156 8.6875 -2.515625 C 9.03125 -3.128906 9.203125 -3.8125 9.203125 -4.5625 C 9.203125 -5.320312 9.03125 -6 8.6875 -6.59375 C 8.351562 -7.195312 7.882812 -7.664062 7.28125 -8 C 6.675781 -8.34375 5.992188 -8.515625 5.234375 -8.515625 C 4.472656 -8.515625 3.789062 -8.34375 3.1875 -8 C 2.582031 -7.664062 2.109375 -7.195312 1.765625 -6.59375 C 1.421875 -6 1.25 -5.320312 1.25 -4.5625 C 1.25 -3.8125 1.421875 -3.128906 1.765625 -2.515625 C 2.109375 -1.910156 2.582031 -1.441406 3.1875 -1.109375 C 3.789062 -0.773438 4.472656 -0.609375 5.234375 -0.609375 Z M 5.234375 -0.609375 "/></g></g></g><g fill="#ffffff" fill-opacity="1"><g transform="translate(146.693048, 224.015191)"><g><path d="M 1.953125 -8.78125 L 2.296875 -8.78125 L 2.296875 0 L 1.953125 0 Z M 2.125 -11.203125 C 2 -11.203125 1.894531 -11.25 1.8125 -11.34375 C 1.726562 -11.4375 1.6875 -11.539062 1.6875 -11.65625 C 1.6875 -11.78125 1.726562 -11.882812 1.8125 -11.96875 C 1.894531 -12.050781 2 -12.09375 2.125 -12.09375 C 2.238281 -12.09375 2.335938 -12.050781 2.421875 -11.96875 C 2.515625 -11.882812 2.5625 -11.78125 2.5625 -11.65625 C 2.5625 -11.539062 2.515625 -11.4375 2.421875 -11.34375 C 2.335938 -11.25 2.238281 -11.203125 2.125 -11.203125 Z M 2.125 -11.203125 "/></g></g></g><g fill="#ffffff" fill-opacity="1"><g transform="translate(150.936505, 224.015191)"><g><path d="M 4.75 -8.828125 C 5.769531 -8.828125 6.546875 -8.5625 7.078125 -8.03125 C 7.617188 -7.507812 7.890625 -6.75 7.890625 -5.75 L 7.890625 0 L 7.5625 0 L 7.5625 -1.875 C 7.28125 -1.269531 6.851562 -0.796875 6.28125 -0.453125 C 5.707031 -0.117188 5.019531 0.046875 4.21875 0.046875 C 3.238281 0.046875 2.472656 -0.175781 1.921875 -0.625 C 1.378906 -1.070312 1.109375 -1.664062 1.109375 -2.40625 C 1.109375 -3.113281 1.351562 -3.679688 1.84375 -4.109375 C 2.332031 -4.546875 3.128906 -4.765625 4.234375 -4.765625 L 7.5625 -4.765625 L 7.5625 -5.734375 C 7.5625 -6.648438 7.320312 -7.34375 6.84375 -7.8125 C 6.375 -8.28125 5.679688 -8.515625 4.765625 -8.515625 C 4.140625 -8.515625 3.550781 -8.398438 3 -8.171875 C 2.445312 -7.953125 1.972656 -7.65625 1.578125 -7.28125 L 1.34375 -7.53125 C 1.757812 -7.9375 2.265625 -8.253906 2.859375 -8.484375 C 3.460938 -8.710938 4.09375 -8.828125 4.75 -8.828125 Z M 4.21875 -0.265625 C 5.84375 -0.265625 6.957031 -1.015625 7.5625 -2.515625 L 7.5625 -4.453125 L 4.21875 -4.453125 C 3.257812 -4.453125 2.554688 -4.269531 2.109375 -3.90625 C 1.660156 -3.539062 1.4375 -3.046875 1.4375 -2.421875 C 1.4375 -1.753906 1.679688 -1.226562 2.171875 -0.84375 C 2.660156 -0.457031 3.34375 -0.265625 4.21875 -0.265625 Z M 4.21875 -0.265625 "/></g></g></g></svg>